<svg xmlns="http://www.w3.org/2000/svg" width="382.857" height="383.704" viewBox="0 0 382.857 383.704">
  <g id="Сгруппировать_74705" data-name="Сгруппировать 74705" transform="translate(-723.288 -1285.39)">
    <path id="Контур_34848" data-name="Контур 34848" d="M870.008,1327.008A103.882,103.882,0,1,1,766.126,1430.89a103.881,103.881,0,0,1,103.883-103.882" transform="translate(47.871 46.502)" fill="#ff1612"/>
    <circle id="Эллипс_671" data-name="Эллипс 671" cx="34.532" cy="34.532" r="34.532" transform="translate(883.486 1442.134)" fill="#fff"/>
    <g id="Сгруппировать_74700" data-name="Сгруппировать 74700" transform="translate(723.488 1285.59)">
      <g id="Сгруппировать_74698" data-name="Сгруппировать 74698">
        <path id="Контур_34849" data-name="Контур 34849" d="M768.3,1370.191l-6.266,1.828-1.569,19.705,6.031,2.81a21.993,21.993,0,0,1,4.725,2.7,3.7,3.7,0,0,1,1.023,3.242,4.612,4.612,0,0,1-1.617,3.167,4.169,4.169,0,0,1-3.188,1.178,6.909,6.909,0,0,1-2.023-.495q-1.028-.414-2.855-1.324L732.068,1388.1q-1.312-.637-3.155-1.533a16.51,16.51,0,0,1-3.031-1.838,6.463,6.463,0,0,1-1.858-2.377,6.809,6.809,0,0,1-.505-3.449,6.9,6.9,0,0,1,1.049-3.363,6.625,6.625,0,0,1,2.176-2.054,14.188,14.188,0,0,1,2.743-1.212q1.449-.464,3.87-1.173l32.284-10.17a15.711,15.711,0,0,1,5.309-1.074,4.3,4.3,0,0,1,2.982,1.651,4.627,4.627,0,0,1,1.134,3.5,4.359,4.359,0,0,1-.571,1.95,4.072,4.072,0,0,1-1.236,1.3,10.126,10.126,0,0,1-2.278,1.034Q769.463,1369.814,768.3,1370.191Zm-15,18.366,1.153-14.479-20.584,5.712Z" transform="translate(-723.488 -1202.225)" fill="#fff" stroke="#fff" stroke-miterlimit="10" stroke-width="0.4"/>
        <path id="Контур_34850" data-name="Контур 34850" d="M751.154,1331.908l-9.391,16.977,10.885,6.02,7.848-14.192a4.872,4.872,0,0,1,2.516-2.458,3.485,3.485,0,0,1,2.9.338,3.4,3.4,0,0,1,1.8,2.287,4.935,4.935,0,0,1-.749,3.413l-7.85,14.193,14.016,7.755a6.438,6.438,0,0,1,3.3,3.4,4.984,4.984,0,0,1-3.45,6.2,6.462,6.462,0,0,1-4.615-.979L735.63,1356.75a8.214,8.214,0,0,1-2.728-2.227,3.916,3.916,0,0,1-.758-2.675,8.308,8.308,0,0,1,1.125-3.3l11.237-20.317a5.055,5.055,0,0,1,2.607-2.556,3.885,3.885,0,0,1,4.819,2.664A5.062,5.062,0,0,1,751.154,1331.908Z" transform="translate(-713.783 -1240.795)" fill="#fff" stroke="#fff" stroke-miterlimit="10" stroke-width="0.4"/>
        <path id="Контур_34851" data-name="Контур 34851" d="M778.763,1308l-15.228,12.021,7.707,9.763,12.73-10.05a4.853,4.853,0,0,1,3.269-1.292,3.478,3.478,0,0,1,2.545,1.433,3.4,3.4,0,0,1,.779,2.808,4.914,4.914,0,0,1-2.013,2.855l-12.73,10.051,9.928,12.576a6.448,6.448,0,0,1,1.724,4.407,4.984,4.984,0,0,1-5.581,4.383,6.46,6.46,0,0,1-3.876-2.687l-23.182-29.364a8.157,8.157,0,0,1-1.651-3.112,3.9,3.9,0,0,1,.335-2.758,8.345,8.345,0,0,1,2.314-2.611l18.224-14.386a5.059,5.059,0,0,1,3.392-1.35,3.537,3.537,0,0,1,2.594,1.438,3.583,3.583,0,0,1,.819,2.885A5.053,5.053,0,0,1,778.763,1308Z" transform="translate(-690.275 -1268.644)" fill="#fff" stroke="#fff" stroke-miterlimit="10" stroke-width="0.4"/>
        <path id="Контур_34852" data-name="Контур 34852" d="M795.5,1334.233l-12.532-36.2a6.471,6.471,0,0,1-.181-4.677,4.534,4.534,0,0,1,2.834-2.558,4.7,4.7,0,0,1,3.885.215,6.406,6.406,0,0,1,2.772,3.8l12.531,36.2a6.455,6.455,0,0,1,.174,4.712,4.665,4.665,0,0,1-2.912,2.589,4.537,4.537,0,0,1-3.8-.282A6.468,6.468,0,0,1,795.5,1334.233Z" transform="translate(-657.307 -1280.102)" fill="#fff" stroke="#fff" stroke-miterlimit="10" stroke-width="0.4"/>
        <path id="Контур_34853" data-name="Контур 34853" d="M816.8,1291.642l-.573,35.384,19.964.324a5.27,5.27,0,0,1,3.647,1.221,3.781,3.781,0,0,1,1.229,2.938,3.689,3.689,0,0,1-1.307,2.882,5.393,5.393,0,0,1-3.7,1.048l-23.781-.386q-3.212-.047-4.6-1.5t-1.333-4.63l.607-37.443a6.492,6.492,0,0,1,1.416-4.456,4.532,4.532,0,0,1,3.553-1.435,4.694,4.694,0,0,1,3.575,1.535A6.386,6.386,0,0,1,816.8,1291.642Z" transform="translate(-630.463 -1285.589)" fill="#fff" stroke="#fff" stroke-miterlimit="10" stroke-width="0.4"/>
        <path id="Контур_34854" data-name="Контур 34854" d="M834.439,1331.036l12.6-36.175a6.437,6.437,0,0,1,2.755-3.781,4.524,4.524,0,0,1,3.81-.252,4.671,4.671,0,0,1,2.913,2.576,6.388,6.388,0,0,1-.178,4.7l-12.6,36.177a6.457,6.457,0,0,1-2.783,3.806,4.687,4.687,0,0,1-3.891.227,4.541,4.541,0,0,1-2.807-2.577A6.47,6.47,0,0,1,834.439,1331.036Z" transform="translate(-599.527 -1280.048)" fill="#fff" stroke="#fff" stroke-miterlimit="10" stroke-width="0.4"/>
        <path id="Контур_34855" data-name="Контур 34855" d="M877.57,1349.018l2.129-6.173-15.175-12.666-5.778,3.3a21.841,21.841,0,0,1-4.94,2.295,3.684,3.684,0,0,1-3.238-1.04,4.619,4.619,0,0,1-1.649-3.146,4.179,4.179,0,0,1,.881-3.284,7.021,7.021,0,0,1,1.573-1.365q.933-.6,2.734-1.566l29.78-16.269q1.28-.7,3.074-1.692a16.606,16.606,0,0,1,3.252-1.41,6.466,6.466,0,0,1,3.015-.142,6.8,6.8,0,0,1,3.11,1.581,6.871,6.871,0,0,1,2.135,2.8,6.605,6.605,0,0,1,.42,2.966,14.251,14.251,0,0,1-.594,2.933q-.461,1.458-1.28,3.838L886.664,1352.2a15.814,15.814,0,0,1-2.19,4.954,4.308,4.308,0,0,1-3.069,1.476,4.624,4.624,0,0,1-3.513-1.1,4.395,4.395,0,0,1-1.261-1.594,4.042,4.042,0,0,1-.348-1.76,10.424,10.424,0,0,1,.473-2.454Q877.2,1350.18,877.57,1349.018Zm-6.321-22.862,11.153,9.31,7.232-20.1Z" transform="translate(-582.704 -1262.963)" fill="#fff" stroke="#fff" stroke-miterlimit="10" stroke-width="0.4"/>
        <path id="Контур_34856" data-name="Контур 34856" d="M916.569,1360.5l-5.027-9.5-31.223,16.519a6.5,6.5,0,0,1-4.636.915,4.551,4.551,0,0,1-2.948-2.418,4.612,4.612,0,0,1-.348-3.847,6.46,6.46,0,0,1,3.343-3.328l31.221-16.519-5.024-9.5a5.442,5.442,0,0,1-.771-3.832,3.769,3.769,0,0,1,2.021-2.456,3.714,3.714,0,0,1,3.235-.269,5.544,5.544,0,0,1,2.7,2.755l14.643,27.676a5.506,5.506,0,0,1,.777,3.887,3.789,3.789,0,0,1-2.027,2.479,3.726,3.726,0,0,1-3.184.259A5.592,5.592,0,0,1,916.569,1360.5Z" transform="translate(-556.618 -1240.203)" fill="#fff" stroke="#fff" stroke-miterlimit="10" stroke-width="0.4"/>
        <path id="Контур_34857" data-name="Контур 34857" d="M922.681,1393.9l-1.509-22.138-11.91.813,1.388,20.383a4.879,4.879,0,0,1-.781,3.431,3.439,3.439,0,0,1-2.59,1.288,3.575,3.575,0,0,1-2.77-.908,4.75,4.75,0,0,1-1.272-3.3l-1.39-20.387-13.8.943,1.562,22.9a5.015,5.015,0,0,1-.839,3.564,3.69,3.69,0,0,1-2.781,1.369,3.625,3.625,0,0,1-2.878-.983,5.016,5.016,0,0,1-1.312-3.417l-1.819-26.7q-.22-3.214,1.108-4.714t4.5-1.72l36.466-2.486a8.2,8.2,0,0,1,3.5.395,3.927,3.927,0,0,1,2.089,1.835,8.352,8.352,0,0,1,.845,3.384l1.766,25.946a5.034,5.034,0,0,1-.8,3.559,3.516,3.516,0,0,1-2.651,1.327,3.574,3.574,0,0,1-2.842-.953A5.054,5.054,0,0,1,922.681,1393.9Z" transform="translate(-547.824 -1200.034)" fill="#fff" stroke="#fff" stroke-miterlimit="10" stroke-width="0.4"/>
      </g>
      <g id="Сгруппировать_74699" data-name="Сгруппировать 74699" transform="translate(49.701 275.957)">
        <path id="Контур_34858" data-name="Контур 34858" d="M789.091,1445.951l-7.355-7.835-25.755,24.176a6.509,6.509,0,0,1-4.233,2.106,4.563,4.563,0,0,1-3.482-1.554,4.623,4.623,0,0,1-1.352-3.621,6.458,6.458,0,0,1,2.345-4.089l25.757-24.176-7.355-7.837a5.425,5.425,0,0,1-1.753-3.491,3.761,3.761,0,0,1,1.3-2.9,3.723,3.723,0,0,1,3.048-1.113,5.54,5.54,0,0,1,3.329,1.946l21.429,22.83a5.515,5.515,0,0,1,1.777,3.543,3.8,3.8,0,0,1-1.3,2.927,3.717,3.717,0,0,1-3,1.089A5.567,5.567,0,0,1,789.091,1445.951Z" transform="translate(-746.902 -1415.591)" fill="#fff" stroke="#fff" stroke-miterlimit="10" stroke-width="0.4"/>
        <path id="Контур_34859" data-name="Контур 34859" d="M799.121,1481.939l.458-6.513-17.935-8.308-4.73,4.68a21.818,21.818,0,0,1-4.177,3.494,3.686,3.686,0,0,1-3.394-.166,4.625,4.625,0,0,1-2.41-2.613,4.156,4.156,0,0,1,0-3.4,6.741,6.741,0,0,1,1.165-1.724q.745-.825,2.233-2.22l24.558-23.422q1.05-1.013,2.53-2.429a16.662,16.662,0,0,1,2.777-2.205,6.464,6.464,0,0,1,2.872-.917,7.868,7.868,0,0,1,6.2,2.872,6.623,6.623,0,0,1,1.174,2.755,14.207,14.207,0,0,1,.187,2.99q-.07,1.523-.244,4.038l-1.662,33.809a15.768,15.768,0,0,1-.832,5.351,4.309,4.309,0,0,1-2.584,2.223,4.627,4.627,0,0,1-3.677-.149,4.43,4.43,0,0,1-1.632-1.213,4.08,4.08,0,0,1-.79-1.609,10.3,10.3,0,0,1-.179-2.5Q799.068,1483.157,799.121,1481.939ZM787.1,1461.492l13.182,6.1,1.783-21.286Z" transform="translate(-724.816 -1392.475)" fill="#fff" stroke="#fff" stroke-miterlimit="10" stroke-width="0.4"/>
        <path id="Контур_34860" data-name="Контур 34860" d="M814.752,1448.663l-.923,35.377,19.96.52a5.27,5.27,0,0,1,3.634,1.257,3.777,3.777,0,0,1,1.2,2.953,3.667,3.667,0,0,1-1.335,2.866,5.4,5.4,0,0,1-3.711,1.017l-23.772-.622q-3.216-.083-4.587-1.545t-1.288-4.647l.978-37.434a6.514,6.514,0,0,1,1.458-4.441,4.53,4.53,0,0,1,3.57-1.4,4.692,4.692,0,0,1,3.558,1.571A6.374,6.374,0,0,1,814.752,1448.663Z" transform="translate(-682.882 -1385.308)" fill="#fff" stroke="#fff" stroke-miterlimit="10" stroke-width="0.4"/>
        <path id="Контур_34861" data-name="Контур 34861" d="M840.465,1450.213l6.4,15.8,10.356-25.948a17.839,17.839,0,0,1,1.391-2.887,4.379,4.379,0,0,1,2.153-1.624,4.782,4.782,0,0,1,3.649-.136,4.035,4.035,0,0,1,2.352,2.322,6.041,6.041,0,0,1-.454,4.8l-6.842,15.007,20.206,13.146a24.911,24.911,0,0,1,3.379,2.513,7.019,7.019,0,0,1,1.8,2.511,3.735,3.735,0,0,1-.125,3.09,4.888,4.888,0,0,1-2.766,2.41,5.854,5.854,0,0,1-3.434.441,7.569,7.569,0,0,1-2.906-1.346q-1.378-1.015-2.471-1.863l-17.513-12.234-4.57,10.187,3.77,9.316a6.38,6.38,0,0,1,.406,4.717,4.708,4.708,0,0,1-2.764,2.715,4.811,4.811,0,0,1-2.494.291,4.637,4.637,0,0,1-2.333-.985,5.885,5.885,0,0,1-1.331-1.787q-.554-1.1-1.425-3.252l-13.564-33.514a6.607,6.607,0,0,1-.465-4.641,4.491,4.491,0,0,1,2.745-2.721,4.692,4.692,0,0,1,3.889.017A6.407,6.407,0,0,1,840.465,1450.213Z" transform="translate(-652.902 -1393.662)" fill="#fff" stroke="#fff" stroke-miterlimit="10" stroke-width="0.4"/>
        <path id="Контур_34862" data-name="Контур 34862" d="M904,1435.636a14.294,14.294,0,0,1,4.163,7.12,15.094,15.094,0,0,1-.614,8.609,24.9,24.9,0,0,1-5.733,8.881q-4.974,5.207-10.168,6.706a15.834,15.834,0,0,1-7.5.289,11.869,11.869,0,0,1-6.024-2.889,4.309,4.309,0,0,1-.091-6.192,3.741,3.741,0,0,1,2.541-1.219,7.822,7.822,0,0,1,3.4.707,19.536,19.536,0,0,0,4.193,1.231,8.114,8.114,0,0,0,3.955-.418,11.235,11.235,0,0,0,4.284-3.019,11.6,11.6,0,0,0,3.441-6.553,6.147,6.147,0,0,0-1.792-5.5,5.378,5.378,0,0,0-3.861-1.648,9.547,9.547,0,0,0-4.3,1.166q-2.191,1.141-5.543,3.352a45.743,45.743,0,0,1-8.134,4.36,14.2,14.2,0,0,1-7.111.959,11.631,11.631,0,0,1-6.527-3.371,12.1,12.1,0,0,1-3.643-6.508,13.823,13.823,0,0,1,.911-7.891,25.964,25.964,0,0,1,5.528-8.209,24.028,24.028,0,0,1,6.152-4.831,16.366,16.366,0,0,1,5.882-1.883,12.362,12.362,0,0,1,4.969.393,8.9,8.9,0,0,1,3.541,2.006,4.659,4.659,0,0,1,1.431,3.086,3.973,3.973,0,0,1-1.121,3.219,3.564,3.564,0,0,1-2.388,1.272,11.462,11.462,0,0,1-3.322-.532,12.565,12.565,0,0,0-5.3-.667q-2.4.277-5.237,3.25a10.347,10.347,0,0,0-3.042,5.606,4.873,4.873,0,0,0,1.3,4.476,4.081,4.081,0,0,0,2.371,1.164,6.713,6.713,0,0,0,2.832-.321,14.852,14.852,0,0,0,2.813-1.214q1.3-.733,4.165-2.535a74.352,74.352,0,0,1,6.678-3.917,22.691,22.691,0,0,1,5.956-2.154,11.6,11.6,0,0,1,5.555.261A13.431,13.431,0,0,1,904,1435.636Z" transform="translate(-621.383 -1411.979)" fill="#fff" stroke="#fff" stroke-miterlimit="10" stroke-width="0.4"/>
      </g>
    </g>
    <circle id="Эллипс_668" data-name="Эллипс 668" cx="8.098" cy="8.098" r="8.098" transform="translate(742.61 1525.478)" fill="#fff"/>
    <circle id="Эллипс_669" data-name="Эллипс 669" cx="8.098" cy="8.098" r="8.098" transform="translate(1066.898 1525.478)" fill="#fff"/>
    <g id="Сгруппировать_74701" data-name="Сгруппировать 74701" transform="translate(828.285 1431.128)">
      <path id="Контур_34863" data-name="Контур 34863" d="M835.63,1357.628a38.884,38.884,0,1,0,38.886,38.884A38.929,38.929,0,0,0,835.63,1357.628Zm0,73.523a34.639,34.639,0,1,1,34.641-34.639A34.678,34.678,0,0,1,835.63,1431.151Z" transform="translate(-746.036 -1350.247)" stroke="#000" stroke-width="1"/>
      <path id="Контур_34864" data-name="Контур 34864" d="M839.441,1361.9a2.743,2.743,0,0,0-2.1.323,2.686,2.686,0,0,0-.9,3.653,51.909,51.909,0,0,1,.459,51.031,2.672,2.672,0,0,0,.919,3.6l.055.032a2.718,2.718,0,0,0,1.39.38,2.779,2.779,0,0,0,.709-.094,2.654,2.654,0,0,0,1.641-1.28,57.166,57.166,0,0,0-.514-56.393A2.649,2.649,0,0,0,839.441,1361.9Zm-1.023,57.721h0v0Z" transform="translate(-701.885 -1345.538)" stroke="#000" stroke-width="1"/>
      <path id="Контур_34865" data-name="Контур 34865" d="M854.575,1355.631a2.956,2.956,0,0,0-1.851-1.389,3.062,3.062,0,0,0-2.345.363,3.019,3.019,0,0,0-1.006,4.1,83.526,83.526,0,0,1,.747,82.094,3.019,3.019,0,0,0,1.081,4.085h0a3.06,3.06,0,0,0,2.354.32,2.935,2.935,0,0,0,1.822-1.42,89.353,89.353,0,0,0-.8-88.155Z" transform="translate(-687.42 -1354.151)" stroke="#000" stroke-width="1"/>
      <path id="Контур_34866" data-name="Контур 34866" d="M847.445,1359.52a2.694,2.694,0,0,0-1.683-1.261,2.773,2.773,0,0,0-2.131.33,2.726,2.726,0,0,0-.911,3.7,67.273,67.273,0,0,1,.605,66.137,2.722,2.722,0,0,0,.977,3.691,2.813,2.813,0,0,0,2.135.292,2.694,2.694,0,0,0,1.66-1.293,72.595,72.595,0,0,0-.652-71.6Z" transform="translate(-694.844 -1349.631)" stroke="#000" stroke-width="1"/>
      <path id="Контур_34867" data-name="Контур 34867" d="M799.518,1362.227a2.744,2.744,0,0,0-2.1-.323,2.655,2.655,0,0,0-1.664,1.248,57.166,57.166,0,0,0-.514,56.393,2.658,2.658,0,0,0,1.643,1.28,2.765,2.765,0,0,0,.709.094,2.722,2.722,0,0,0,1.391-.38l.007,0a2.683,2.683,0,0,0,.968-3.625,51.9,51.9,0,0,1,.459-51.029A2.688,2.688,0,0,0,799.518,1362.227Z" transform="translate(-755.787 -1345.538)" stroke="#000" stroke-width="1"/>
      <path id="Контур_34868" data-name="Контур 34868" d="M778.937,1400.416a83.467,83.467,0,0,1,11.157-41.71,3.017,3.017,0,0,0-1-4.1,3.071,3.071,0,0,0-2.348-.363,2.961,2.961,0,0,0-1.851,1.389,89.353,89.353,0,0,0-.8,88.155,2.945,2.945,0,0,0,1.824,1.42,3.059,3.059,0,0,0,2.354-.32h0a3.021,3.021,0,0,0,1.08-4.085A83.566,83.566,0,0,1,778.937,1400.416Z" transform="translate(-772.857 -1354.151)" stroke="#000" stroke-width="1"/>
      <path id="Контур_34869" data-name="Контур 34869" d="M794.365,1358.589a2.771,2.771,0,0,0-2.129-.33,2.69,2.69,0,0,0-1.684,1.261,72.579,72.579,0,0,0-.652,71.6,2.691,2.691,0,0,0,1.658,1.293,2.8,2.8,0,0,0,.719.093,2.767,2.767,0,0,0,1.416-.384,2.723,2.723,0,0,0,.981-3.691,67.274,67.274,0,0,1,.6-66.137A2.724,2.724,0,0,0,794.365,1358.589Z" transform="translate(-763.963 -1349.631)" stroke="#000" stroke-width="1"/>
    </g>
    <circle id="Эллипс_670" data-name="Эллипс 670" cx="6.495" cy="6.495" r="6.495" transform="translate(911.385 1470.896)" fill="#141414"/>
  </g>
</svg>
