<svg xmlns="http://www.w3.org/2000/svg" width="332.664" height="333.4" viewBox="0 0 332.664 333.4">
  <g id="Сгруппировать_74705" data-name="Сгруппировать 74705" transform="translate(-723.288 -1285.39)">
    <path id="Контур_34848" data-name="Контур 34848" d="M856.375,1327.008a90.249,90.249,0,1,1-90.249,90.249,90.248,90.248,0,0,1,90.249-90.249" transform="translate(35.993 34.963)" fill="#ff1612"/>
    <circle id="Эллипс_671" data-name="Эллипс 671" cx="30" cy="30" r="30" transform="translate(862.488 1421.59)" fill="#fff"/>
    <g id="Сгруппировать_74700" data-name="Сгруппировать 74700" transform="translate(723.488 1285.59)">
      <g id="Сгруппировать_74698" data-name="Сгруппировать 74698">
        <path id="Контур_34849" data-name="Контур 34849" d="M762.416,1368.833l-5.444,1.588-1.363,17.119,5.239,2.442a19.13,19.13,0,0,1,4.105,2.349,3.213,3.213,0,0,1,.889,2.816,4.006,4.006,0,0,1-1.405,2.751,3.621,3.621,0,0,1-2.77,1.024,6,6,0,0,1-1.758-.43q-.894-.359-2.48-1.151l-26.487-12.952q-1.14-.553-2.74-1.332a14.369,14.369,0,0,1-2.633-1.6,5.618,5.618,0,0,1-1.614-2.065,5.918,5.918,0,0,1-.439-3,6,6,0,0,1,.911-2.921,5.75,5.75,0,0,1,1.89-1.785,12.311,12.311,0,0,1,2.383-1.053q1.259-.4,3.362-1.02l28.047-8.836a13.653,13.653,0,0,1,4.613-.933,3.732,3.732,0,0,1,2.591,1.435,4.02,4.02,0,0,1,.985,3.041,3.787,3.787,0,0,1-.5,1.695,3.54,3.54,0,0,1-1.073,1.129,8.8,8.8,0,0,1-1.979.9Q763.429,1368.505,762.416,1368.833Zm-13.034,15.956,1-12.579-17.883,4.963Z" transform="translate(-723.488 -1222.91)" fill="#fff" stroke="#fff" stroke-miterlimit="10" stroke-width="0.4"/>
        <path id="Контур_34850" data-name="Контур 34850" d="M748.657,1331.065l-8.158,14.75,9.457,5.23,6.818-12.33a4.233,4.233,0,0,1,2.185-2.135,3.029,3.029,0,0,1,2.523.293,2.951,2.951,0,0,1,1.568,1.986,4.289,4.289,0,0,1-.651,2.965l-6.82,12.33,12.177,6.737a5.592,5.592,0,0,1,2.864,2.95,4.33,4.33,0,0,1-3,5.389,5.618,5.618,0,0,1-4.009-.85l-28.442-15.732a7.135,7.135,0,0,1-2.37-1.935,3.4,3.4,0,0,1-.659-2.324,7.222,7.222,0,0,1,.978-2.87l9.763-17.65a4.392,4.392,0,0,1,2.265-2.22,3.375,3.375,0,0,1,4.186,2.314A4.4,4.4,0,0,1,748.657,1331.065Z" transform="translate(-716.191 -1251.91)" fill="#fff" stroke="#fff" stroke-miterlimit="10" stroke-width="0.4"/>
        <path id="Контур_34851" data-name="Контур 34851" d="M775.391,1307.043l-13.23,10.443,6.7,8.482,11.06-8.731a4.218,4.218,0,0,1,2.84-1.123,3.024,3.024,0,0,1,2.211,1.245,2.955,2.955,0,0,1,.677,2.439,4.269,4.269,0,0,1-1.749,2.481l-11.059,8.732,8.625,10.925a5.6,5.6,0,0,1,1.5,3.829,4.331,4.331,0,0,1-4.848,3.808,5.614,5.614,0,0,1-3.367-2.335l-20.14-25.51a7.091,7.091,0,0,1-1.435-2.7,3.386,3.386,0,0,1,.291-2.4,7.243,7.243,0,0,1,2.01-2.268l15.832-12.5a4.4,4.4,0,0,1,2.947-1.173,3.072,3.072,0,0,1,2.254,1.25,3.112,3.112,0,0,1,.712,2.506A4.389,4.389,0,0,1,775.391,1307.043Z" transform="translate(-698.516 -1272.848)" fill="#fff" stroke="#fff" stroke-miterlimit="10" stroke-width="0.4"/>
        <path id="Контур_34852" data-name="Контур 34852" d="M793.79,1328.49,782.9,1297.038a5.618,5.618,0,0,1-.157-4.062,3.939,3.939,0,0,1,2.462-2.222,4.078,4.078,0,0,1,3.375.186,5.567,5.567,0,0,1,2.408,3.3l10.886,31.45a5.61,5.61,0,0,1,.151,4.094,4.055,4.055,0,0,1-2.53,2.25,3.943,3.943,0,0,1-3.3-.245A5.619,5.619,0,0,1,793.79,1328.49Z" transform="translate(-673.728 -1281.464)" fill="#fff" stroke="#fff" stroke-miterlimit="10" stroke-width="0.4"/>
        <path id="Контур_34853" data-name="Контур 34853" d="M815.428,1290.848l-.5,30.74,17.344.282a4.578,4.578,0,0,1,3.168,1.061,3.285,3.285,0,0,1,1.067,2.552,3.2,3.2,0,0,1-1.136,2.5,4.686,4.686,0,0,1-3.213.911l-20.66-.335a4.477,4.477,0,0,1-5.156-5.326l.527-32.529a5.64,5.64,0,0,1,1.23-3.871,3.938,3.938,0,0,1,3.087-1.247,4.078,4.078,0,0,1,3.106,1.333A5.548,5.548,0,0,1,815.428,1290.848Z" transform="translate(-653.545 -1285.589)" fill="#fff" stroke="#fff" stroke-miterlimit="10" stroke-width="0.4"/>
        <path id="Контур_34854" data-name="Контур 34854" d="M834.368,1325.72l10.949-31.428a5.6,5.6,0,0,1,2.394-3.285,3.932,3.932,0,0,1,3.31-.219,4.059,4.059,0,0,1,2.53,2.239,5.549,5.549,0,0,1-.155,4.08l-10.947,31.429a5.609,5.609,0,0,1-2.418,3.307,4.072,4.072,0,0,1-3.38.2,3.946,3.946,0,0,1-2.438-2.239A5.621,5.621,0,0,1,834.368,1325.72Z" transform="translate(-630.285 -1281.423)" fill="#fff" stroke="#fff" stroke-miterlimit="10" stroke-width="0.4"/>
        <path id="Контур_34855" data-name="Контур 34855" d="M873.8,1343.338l1.85-5.363-13.184-11-5.02,2.864a18.957,18.957,0,0,1-4.291,1.993,3.2,3.2,0,0,1-2.812-.9,4.013,4.013,0,0,1-1.433-2.733,3.631,3.631,0,0,1,.765-2.853,6.1,6.1,0,0,1,1.366-1.186q.811-.523,2.375-1.361l25.871-14.134q1.112-.612,2.67-1.47a14.425,14.425,0,0,1,2.825-1.225,5.616,5.616,0,0,1,2.619-.124,5.906,5.906,0,0,1,2.7,1.374,5.968,5.968,0,0,1,1.855,2.43,5.738,5.738,0,0,1,.365,2.576,12.381,12.381,0,0,1-.516,2.548q-.4,1.267-1.112,3.334l-9,28a13.739,13.739,0,0,1-1.9,4.3,3.742,3.742,0,0,1-2.667,1.282,4.017,4.017,0,0,1-3.052-.952,3.818,3.818,0,0,1-1.1-1.385,3.512,3.512,0,0,1-.3-1.529,9.049,9.049,0,0,1,.411-2.132Q873.487,1344.348,873.8,1343.338Zm-5.492-19.861,9.689,8.088,6.283-17.464Z" transform="translate(-617.636 -1268.577)" fill="#fff" stroke="#fff" stroke-miterlimit="10" stroke-width="0.4"/>
        <path id="Контур_34856" data-name="Контур 34856" d="M910.735,1355.976l-4.367-8.252-27.125,14.351a5.643,5.643,0,0,1-4.028.795,3.953,3.953,0,0,1-2.562-2.1,4.008,4.008,0,0,1-.3-3.342,5.612,5.612,0,0,1,2.9-2.891l27.124-14.352-4.365-8.252a4.729,4.729,0,0,1-.669-3.329,3.274,3.274,0,0,1,1.756-2.133,3.226,3.226,0,0,1,2.811-.234,4.817,4.817,0,0,1,2.344,2.394l12.721,24.044a4.782,4.782,0,0,1,.675,3.376,3.29,3.29,0,0,1-1.761,2.154,3.237,3.237,0,0,1-2.766.225A4.859,4.859,0,0,1,910.735,1355.976Z" transform="translate(-598.023 -1251.464)" fill="#fff" stroke="#fff" stroke-miterlimit="10" stroke-width="0.4"/>
        <path id="Контур_34857" data-name="Контур 34857" d="M917.073,1389.682l-1.311-19.233-10.347.706,1.206,17.708a4.237,4.237,0,0,1-.679,2.98,2.988,2.988,0,0,1-2.25,1.119,3.1,3.1,0,0,1-2.406-.789,4.127,4.127,0,0,1-1.1-2.869l-1.208-17.711-11.989.819,1.357,19.893a4.357,4.357,0,0,1-.729,3.1,3.206,3.206,0,0,1-2.416,1.189,3.149,3.149,0,0,1-2.5-.854,4.358,4.358,0,0,1-1.14-2.969l-1.581-23.2a4.48,4.48,0,0,1,4.874-5.59l31.681-2.159a7.116,7.116,0,0,1,3.041.343,3.411,3.411,0,0,1,1.814,1.594,7.254,7.254,0,0,1,.734,2.939l1.534,22.541a4.376,4.376,0,0,1-.7,3.093,3.057,3.057,0,0,1-2.3,1.153,3.106,3.106,0,0,1-2.469-.828A4.39,4.39,0,0,1,917.073,1389.682Z" transform="translate(-591.411 -1221.263)" fill="#fff" stroke="#fff" stroke-miterlimit="10" stroke-width="0.4"/>
      </g>
      <g id="Сгруппировать_74699" data-name="Сгруппировать 74699" transform="translate(43.178 239.741)">
        <path id="Контур_34858" data-name="Контур 34858" d="M783.554,1441.966l-6.39-6.807-22.375,21a5.654,5.654,0,0,1-3.677,1.83,3.965,3.965,0,0,1-3.025-1.35,4.018,4.018,0,0,1-1.174-3.146,5.61,5.61,0,0,1,2.037-3.552l22.377-21-6.39-6.809a4.712,4.712,0,0,1-1.523-3.033,3.268,3.268,0,0,1,1.13-2.523,3.235,3.235,0,0,1,2.648-.967,4.814,4.814,0,0,1,2.892,1.691l18.617,19.834a4.79,4.79,0,0,1,1.543,3.078,3.3,3.3,0,0,1-1.13,2.543,3.229,3.229,0,0,1-2.608.946A4.836,4.836,0,0,1,783.554,1441.966Z" transform="translate(-746.902 -1415.59)" fill="#fff" stroke="#fff" stroke-miterlimit="10" stroke-width="0.4"/>
        <path id="Контур_34859" data-name="Контур 34859" d="M794.849,1475.933l.4-5.658-15.581-7.218-4.109,4.066a18.967,18.967,0,0,1-3.629,3.035,3.2,3.2,0,0,1-2.949-.144,4.018,4.018,0,0,1-2.093-2.27,3.612,3.612,0,0,1,0-2.954,5.862,5.862,0,0,1,1.012-1.5q.647-.716,1.94-1.929l21.335-20.348q.913-.88,2.2-2.11a14.5,14.5,0,0,1,2.412-1.916,5.617,5.617,0,0,1,2.5-.8,6.835,6.835,0,0,1,5.387,2.5,5.75,5.75,0,0,1,1.02,2.394,12.32,12.32,0,0,1,.163,2.6q-.061,1.322-.212,3.508L803.2,1476.56a13.693,13.693,0,0,1-.723,4.649,3.743,3.743,0,0,1-2.244,1.931,4.021,4.021,0,0,1-3.194-.129,3.846,3.846,0,0,1-1.418-1.053,3.545,3.545,0,0,1-.686-1.4,8.944,8.944,0,0,1-.155-2.169Q794.8,1476.992,794.849,1475.933Zm-10.444-17.763,11.452,5.3,1.549-18.493Z" transform="translate(-730.296 -1398.21)" fill="#fff" stroke="#fff" stroke-miterlimit="10" stroke-width="0.4"/>
        <path id="Контур_34860" data-name="Контур 34860" d="M813.331,1447.862l-.8,30.734,17.341.452a4.576,4.576,0,0,1,3.157,1.092,3.28,3.28,0,0,1,1.042,2.565,3.187,3.187,0,0,1-1.16,2.49,4.7,4.7,0,0,1-3.224.883l-20.652-.541a4.478,4.478,0,0,1-5.1-5.379l.85-32.521a5.659,5.659,0,0,1,1.267-3.858,3.935,3.935,0,0,1,3.1-1.215,4.077,4.077,0,0,1,3.091,1.365A5.537,5.537,0,0,1,813.331,1447.862Z" transform="translate(-698.767 -1392.822)" fill="#fff" stroke="#fff" stroke-miterlimit="10" stroke-width="0.4"/>
        <path id="Контур_34861" data-name="Контур 34861" d="M839.174,1448.232l5.557,13.73,9-22.543a15.5,15.5,0,0,1,1.208-2.508,3.8,3.8,0,0,1,1.87-1.411,4.152,4.152,0,0,1,3.17-.118,3.5,3.5,0,0,1,2.043,2.017,5.245,5.245,0,0,1-.395,4.17l-5.944,13.038,17.554,11.421a21.659,21.659,0,0,1,2.936,2.183,6.1,6.1,0,0,1,1.566,2.182,3.246,3.246,0,0,1-.109,2.685,4.246,4.246,0,0,1-2.4,2.093,5.083,5.083,0,0,1-2.984.383,6.569,6.569,0,0,1-2.525-1.169q-1.2-.881-2.146-1.618l-15.214-10.628-3.97,8.85,3.275,8.094a5.542,5.542,0,0,1,.353,4.1,4.09,4.09,0,0,1-2.4,2.359,4.183,4.183,0,0,1-2.167.253,4.024,4.024,0,0,1-2.027-.856,5.108,5.108,0,0,1-1.156-1.553q-.482-.957-1.238-2.825l-11.784-29.115a5.74,5.74,0,0,1-.4-4.031,3.9,3.9,0,0,1,2.385-2.364,4.076,4.076,0,0,1,3.378.015A5.564,5.564,0,0,1,839.174,1448.232Z" transform="translate(-676.226 -1399.103)" fill="#fff" stroke="#fff" stroke-miterlimit="10" stroke-width="0.4"/>
        <path id="Контур_34862" data-name="Контур 34862" d="M898.052,1433.427a12.418,12.418,0,0,1,3.616,6.185,13.115,13.115,0,0,1-.533,7.48,21.631,21.631,0,0,1-4.981,7.716,20.294,20.294,0,0,1-8.833,5.826,13.746,13.746,0,0,1-6.519.251,10.31,10.31,0,0,1-5.234-2.51,3.744,3.744,0,0,1-.079-5.379,3.249,3.249,0,0,1,2.207-1.059,6.8,6.8,0,0,1,2.958.615,16.966,16.966,0,0,0,3.642,1.069,7.05,7.05,0,0,0,3.436-.363,9.765,9.765,0,0,0,3.722-2.623,10.081,10.081,0,0,0,2.989-5.693,5.341,5.341,0,0,0-1.556-4.774,4.673,4.673,0,0,0-3.354-1.431,8.292,8.292,0,0,0-3.738,1.012q-1.9.991-4.815,2.912a39.7,39.7,0,0,1-7.067,3.788,12.333,12.333,0,0,1-6.178.833,10.105,10.105,0,0,1-5.671-2.928,10.514,10.514,0,0,1-3.165-5.654,12.008,12.008,0,0,1,.791-6.855,22.555,22.555,0,0,1,4.8-7.131,20.871,20.871,0,0,1,5.344-4.2,14.221,14.221,0,0,1,5.11-1.636,10.735,10.735,0,0,1,4.317.341,7.73,7.73,0,0,1,3.076,1.743,4.047,4.047,0,0,1,1.243,2.681,3.451,3.451,0,0,1-.974,2.8,3.1,3.1,0,0,1-2.075,1.106,9.965,9.965,0,0,1-2.886-.463,10.911,10.911,0,0,0-4.608-.579q-2.083.241-4.55,2.824a8.988,8.988,0,0,0-2.643,4.87,4.233,4.233,0,0,0,1.128,3.889,3.545,3.545,0,0,0,2.06,1.011,5.826,5.826,0,0,0,2.46-.279,12.9,12.9,0,0,0,2.443-1.054q1.126-.636,3.618-2.2a64.5,64.5,0,0,1,5.8-3.4,19.733,19.733,0,0,1,5.175-1.872,10.081,10.081,0,0,1,4.826.227A11.672,11.672,0,0,1,898.052,1433.427Z" transform="translate(-652.528 -1412.875)" fill="#fff" stroke="#fff" stroke-miterlimit="10" stroke-width="0.4"/>
      </g>
    </g>
    <circle id="Эллипс_668" data-name="Эллипс 668" cx="7.035" cy="7.035" r="7.035" transform="translate(740.1 1493.996)" fill="#fff"/>
    <circle id="Эллипс_669" data-name="Эллипс 669" cx="7.035" cy="7.035" r="7.035" transform="translate(1021.83 1493.996)" fill="#fff"/>
    <g id="Сгруппировать_74701" data-name="Сгруппировать 74701" transform="translate(814.532 1412.027)">
      <path id="Контур_34863" data-name="Контур 34863" d="M830.527,1357.628a33.781,33.781,0,1,0,33.783,33.781A33.82,33.82,0,0,0,830.527,1357.628Zm0,63.874a30.093,30.093,0,1,1,30.094-30.093A30.127,30.127,0,0,1,830.527,1421.5Z" transform="translate(-752.691 -1351.216)" stroke="#000" stroke-width="1"/>
      <path id="Контур_34864" data-name="Контур 34864" d="M839,1361.893a2.385,2.385,0,0,0-1.82.28,2.334,2.334,0,0,0-.784,3.174,45.1,45.1,0,0,1,.4,44.333,2.321,2.321,0,0,0,.8,3.124l.048.028a2.362,2.362,0,0,0,1.208.33,2.415,2.415,0,0,0,.616-.082,2.306,2.306,0,0,0,1.425-1.112,49.664,49.664,0,0,0-.446-48.992A2.3,2.3,0,0,0,839,1361.893Zm-.889,50.146h0v0Z" transform="translate(-719.495 -1347.675)" stroke="#000" stroke-width="1"/>
      <path id="Контур_34865" data-name="Контур 34865" d="M853.837,1355.437a2.567,2.567,0,0,0-1.608-1.206,2.661,2.661,0,0,0-2.038.315,2.623,2.623,0,0,0-.874,3.563,72.564,72.564,0,0,1,.649,71.321,2.622,2.622,0,0,0,.939,3.548h0a2.657,2.657,0,0,0,2.045.278,2.551,2.551,0,0,0,1.583-1.234,77.626,77.626,0,0,0-.7-76.585Z" transform="translate(-708.62 -1354.151)" stroke="#000" stroke-width="1"/>
      <path id="Контур_34866" data-name="Контур 34866" d="M846.775,1359.344a2.338,2.338,0,0,0-1.462-1.1,2.411,2.411,0,0,0-1.852.287,2.368,2.368,0,0,0-.791,3.218,58.445,58.445,0,0,1,.526,57.458,2.365,2.365,0,0,0,.848,3.207,2.444,2.444,0,0,0,1.855.253,2.34,2.34,0,0,0,1.442-1.123,63.066,63.066,0,0,0-.566-62.2Z" transform="translate(-714.201 -1350.753)" stroke="#000" stroke-width="1"/>
      <path id="Контур_34867" data-name="Контур 34867" d="M798.014,1362.174a2.386,2.386,0,0,0-1.82-.28,2.308,2.308,0,0,0-1.446,1.084,49.664,49.664,0,0,0-.446,48.992,2.31,2.31,0,0,0,1.427,1.112,2.4,2.4,0,0,0,.616.082,2.365,2.365,0,0,0,1.208-.33l.006,0a2.331,2.331,0,0,0,.841-3.15,45.084,45.084,0,0,1,.4-44.332A2.335,2.335,0,0,0,798.014,1362.174Z" transform="translate(-760.022 -1347.675)" stroke="#000" stroke-width="1"/>
      <path id="Контур_34868" data-name="Контур 34868" d="M778.139,1394.344a72.516,72.516,0,0,1,9.693-36.236,2.621,2.621,0,0,0-.872-3.563,2.669,2.669,0,0,0-2.04-.315,2.572,2.572,0,0,0-1.608,1.206,77.626,77.626,0,0,0-.7,76.585,2.559,2.559,0,0,0,1.584,1.234,2.657,2.657,0,0,0,2.045-.278h0a2.624,2.624,0,0,0,.939-3.548A72.6,72.6,0,0,1,778.139,1394.344Z" transform="translate(-772.857 -1354.151)" stroke="#000" stroke-width="1"/>
      <path id="Контур_34869" data-name="Контур 34869" d="M792.581,1358.535a2.409,2.409,0,0,0-1.849-.287,2.334,2.334,0,0,0-1.463,1.1,63.053,63.053,0,0,0-.566,62.2,2.337,2.337,0,0,0,1.44,1.123,2.443,2.443,0,0,0,1.855-.253,2.366,2.366,0,0,0,.852-3.207,58.445,58.445,0,0,1,.522-57.458A2.366,2.366,0,0,0,792.581,1358.535Z" transform="translate(-766.17 -1350.753)" stroke="#000" stroke-width="1"/>
    </g>
    <circle id="Эллипс_670" data-name="Эллипс 670" cx="5.643" cy="5.643" r="5.643" transform="translate(886.725 1446.577)" fill="#141414"/>
  </g>
</svg>
