<svg xmlns="http://www.w3.org/2000/svg" width="117.298" height="117.557" viewBox="0 0 117.298 117.557">
  <g id="Сгруппировать_74703" data-name="Сгруппировать 74703" transform="translate(-723.288 -1285.39)">
    <path id="Контур_34848" data-name="Контур 34848" d="M797.878,1327.008a31.752,31.752,0,1,1-31.752,31.751,31.751,31.751,0,0,1,31.752-31.751" transform="translate(-14.974 -14.546)" fill="#ff1612"/>
    <circle id="Эллипс_671" data-name="Эллипс 671" cx="10.5" cy="10.5" r="10.5" transform="translate(772.488 1333.59)" fill="#fff"/>
    <g id="Сгруппировать_74700" data-name="Сгруппировать 74700" transform="translate(723.488 1285.59)">
      <g id="Сгруппировать_74698" data-name="Сгруппировать 74698">
        <path id="Контур_34849" data-name="Контур 34849" d="M737.184,1363l-1.915.559-.479,6.023,1.843.859a6.73,6.73,0,0,1,1.444.827,1.13,1.13,0,0,1,.313.991,1.409,1.409,0,0,1-.494.968,1.274,1.274,0,0,1-.974.36,2.108,2.108,0,0,1-.618-.151q-.314-.126-.873-.4l-9.319-4.557-.964-.468a5.06,5.06,0,0,1-.926-.562,1.976,1.976,0,0,1-.568-.727,2.082,2.082,0,0,1-.154-1.054,2.11,2.11,0,0,1,.321-1.028,2.024,2.024,0,0,1,.665-.628,4.333,4.333,0,0,1,.838-.37c.3-.095.69-.214,1.183-.359l9.868-3.109a4.8,4.8,0,0,1,1.623-.328,1.313,1.313,0,0,1,.912.5,1.414,1.414,0,0,1,.346,1.07,1.333,1.333,0,0,1-.174.6,1.245,1.245,0,0,1-.378.4,3.1,3.1,0,0,1-.7.316Q737.54,1362.889,737.184,1363Zm-4.586,5.614.352-4.426-6.292,1.746Z" transform="translate(-723.488 -1311.666)" fill="#fff" stroke="#fff" stroke-miterlimit="10" stroke-width="0.4"/>
        <path id="Контур_34850" data-name="Контур 34850" d="M737.946,1327.45l-2.87,5.189,3.327,1.84,2.4-4.338a1.489,1.489,0,0,1,.769-.751,1.066,1.066,0,0,1,.888.1,1.038,1.038,0,0,1,.552.7,1.508,1.508,0,0,1-.229,1.043l-2.4,4.338,4.284,2.37a1.967,1.967,0,0,1,1.008,1.038,1.523,1.523,0,0,1-1.054,1.9,1.976,1.976,0,0,1-1.411-.3l-10.007-5.535a2.51,2.51,0,0,1-.834-.681,1.2,1.2,0,0,1-.232-.818,2.54,2.54,0,0,1,.344-1.01l3.435-6.21a1.545,1.545,0,0,1,.8-.781,1.187,1.187,0,0,1,1.473.814A1.547,1.547,0,0,1,737.946,1327.45Z" transform="translate(-726.524 -1299.601)" fill="#fff" stroke="#fff" stroke-miterlimit="10" stroke-width="0.4"/>
        <path id="Контур_34851" data-name="Контур 34851" d="M760.923,1302.921l-4.655,3.674,2.356,2.984,3.891-3.072a1.484,1.484,0,0,1,1-.4,1.064,1.064,0,0,1,.778.438,1.039,1.039,0,0,1,.238.858,1.5,1.5,0,0,1-.615.873l-3.891,3.072,3.034,3.844a1.971,1.971,0,0,1,.527,1.347,1.524,1.524,0,0,1-1.706,1.34,1.975,1.975,0,0,1-1.185-.821l-7.086-8.975a2.494,2.494,0,0,1-.5-.951,1.191,1.191,0,0,1,.1-.843,2.548,2.548,0,0,1,.707-.8l5.57-4.4a1.546,1.546,0,0,1,1.037-.413,1.081,1.081,0,0,1,.793.44,1.1,1.1,0,0,1,.25.882A1.545,1.545,0,0,1,760.923,1302.921Z" transform="translate(-733.877 -1290.89)" fill="#fff" stroke="#fff" stroke-miterlimit="10" stroke-width="0.4"/>
        <path id="Контур_34852" data-name="Контур 34852" d="M786.43,1303.851l-3.831-11.065a1.977,1.977,0,0,1-.055-1.429,1.386,1.386,0,0,1,.866-.782,1.435,1.435,0,0,1,1.187.066,1.958,1.958,0,0,1,.847,1.161l3.83,11.065a1.974,1.974,0,0,1,.053,1.44,1.426,1.426,0,0,1-.89.792,1.387,1.387,0,0,1-1.161-.086A1.977,1.977,0,0,1,786.43,1303.851Z" transform="translate(-744.189 -1287.306)" fill="#fff" stroke="#fff" stroke-miterlimit="10" stroke-width="0.4"/>
        <path id="Контур_34853" data-name="Контур 34853" d="M809.54,1287.44l-.175,10.815,6.1.1a1.611,1.611,0,0,1,1.115.373,1.156,1.156,0,0,1,.376.9,1.128,1.128,0,0,1-.4.881,1.649,1.649,0,0,1-1.13.321l-7.269-.118a1.575,1.575,0,0,1-1.814-1.874l.186-11.444a1.984,1.984,0,0,1,.433-1.362,1.385,1.385,0,0,1,1.086-.439,1.435,1.435,0,0,1,1.093.469A1.952,1.952,0,0,1,809.54,1287.44Z" transform="translate(-752.586 -1285.59)" fill="#fff" stroke="#fff" stroke-miterlimit="10" stroke-width="0.4"/>
        <path id="Контур_34854" data-name="Контур 34854" d="M834.064,1302.908l3.852-11.057a1.968,1.968,0,0,1,.842-1.156,1.384,1.384,0,0,1,1.165-.077,1.428,1.428,0,0,1,.89.788,1.952,1.952,0,0,1-.054,1.435l-3.851,11.058a1.974,1.974,0,0,1-.851,1.163,1.433,1.433,0,0,1-1.189.069,1.389,1.389,0,0,1-.858-.788A1.977,1.977,0,0,1,834.064,1302.908Z" transform="translate(-762.263 -1287.323)" fill="#fff" stroke="#fff" stroke-miterlimit="10" stroke-width="0.4"/>
        <path id="Контур_34855" data-name="Контур 34855" d="M857.651,1318.969l.651-1.887-4.638-3.871-1.766,1.008a6.666,6.666,0,0,1-1.51.7,1.126,1.126,0,0,1-.989-.318,1.412,1.412,0,0,1-.5-.962,1.277,1.277,0,0,1,.269-1,2.142,2.142,0,0,1,.481-.417q.285-.184.836-.479l9.1-4.973.939-.517a5.075,5.075,0,0,1,.994-.431,1.975,1.975,0,0,1,.921-.043,2.077,2.077,0,0,1,.951.483,2.1,2.1,0,0,1,.653.855,2.018,2.018,0,0,1,.128.906,4.36,4.36,0,0,1-.182.9q-.141.446-.391,1.173l-3.165,9.851a4.834,4.834,0,0,1-.67,1.514,1.317,1.317,0,0,1-.938.451,1.413,1.413,0,0,1-1.074-.335,1.344,1.344,0,0,1-.385-.487,1.236,1.236,0,0,1-.106-.538,3.186,3.186,0,0,1,.145-.75Q857.539,1319.325,857.651,1318.969Zm-1.932-6.988,3.409,2.846,2.211-6.144Z" transform="translate(-767.525 -1292.667)" fill="#fff" stroke="#fff" stroke-miterlimit="10" stroke-width="0.4"/>
        <path id="Контур_34856" data-name="Контур 34856" d="M885.7,1336.556l-1.536-2.9-9.543,5.049a1.985,1.985,0,0,1-1.417.28,1.391,1.391,0,0,1-.9-.739,1.41,1.41,0,0,1-.106-1.176,1.975,1.975,0,0,1,1.022-1.017l9.543-5.049-1.536-2.9a1.664,1.664,0,0,1-.236-1.171,1.152,1.152,0,0,1,.618-.75,1.135,1.135,0,0,1,.989-.082,1.694,1.694,0,0,1,.825.842l4.476,8.459a1.683,1.683,0,0,1,.237,1.188,1.158,1.158,0,0,1-.62.758,1.139,1.139,0,0,1-.973.079A1.71,1.71,0,0,1,885.7,1336.556Z" transform="translate(-775.685 -1299.787)" fill="#fff" stroke="#fff" stroke-miterlimit="10" stroke-width="0.4"/>
        <path id="Контур_34857" data-name="Контур 34857" d="M893.01,1371.6l-.461-6.766-3.641.248.424,6.23a1.491,1.491,0,0,1-.239,1.049,1.051,1.051,0,0,1-.792.394,1.092,1.092,0,0,1-.847-.278,1.452,1.452,0,0,1-.389-1.01l-.425-6.231-4.218.288.478,7a1.533,1.533,0,0,1-.256,1.089,1.128,1.128,0,0,1-.85.418,1.108,1.108,0,0,1-.88-.3,1.533,1.533,0,0,1-.4-1.045l-.556-8.162a1.576,1.576,0,0,1,1.715-1.967l11.146-.76a2.5,2.5,0,0,1,1.07.121,1.2,1.2,0,0,1,.638.561,2.553,2.553,0,0,1,.258,1.034l.54,7.93a1.54,1.54,0,0,1-.246,1.088,1.075,1.075,0,0,1-.81.406,1.093,1.093,0,0,1-.869-.291A1.545,1.545,0,0,1,893.01,1371.6Z" transform="translate(-778.435 -1312.351)" fill="#fff" stroke="#fff" stroke-miterlimit="10" stroke-width="0.4"/>
      </g>
      <g id="Сгруппировать_74699" data-name="Сгруппировать 74699" transform="translate(15.191 84.346)">
        <path id="Контур_34858" data-name="Контур 34858" d="M759.8,1424.87l-2.248-2.395-7.872,7.389a1.989,1.989,0,0,1-1.294.644,1.4,1.4,0,0,1-1.064-.475,1.414,1.414,0,0,1-.413-1.107,1.974,1.974,0,0,1,.717-1.25l7.873-7.389-2.248-2.4a1.658,1.658,0,0,1-.536-1.067,1.15,1.15,0,0,1,.4-.888,1.138,1.138,0,0,1,.932-.34,1.694,1.694,0,0,1,1.017.595l6.55,6.978a1.685,1.685,0,0,1,.543,1.083,1.16,1.16,0,0,1-.4.895,1.136,1.136,0,0,1-.917.333A1.7,1.7,0,0,1,759.8,1424.87Z" transform="translate(-746.902 -1415.59)" fill="#fff" stroke="#fff" stroke-miterlimit="10" stroke-width="0.4"/>
        <path id="Контур_34859" data-name="Контур 34859" d="M776.521,1450.166l.14-1.991-5.482-2.539-1.446,1.431a6.67,6.67,0,0,1-1.277,1.068,1.127,1.127,0,0,1-1.037-.051,1.414,1.414,0,0,1-.736-.8,1.271,1.271,0,0,1,0-1.039,2.065,2.065,0,0,1,.356-.527q.228-.252.682-.679l7.506-7.159.773-.742a5.1,5.1,0,0,1,.849-.674,1.976,1.976,0,0,1,.878-.28,2.4,2.4,0,0,1,1.9.878,2.023,2.023,0,0,1,.359.842,4.331,4.331,0,0,1,.057.914q-.021.465-.075,1.234l-.508,10.334a4.818,4.818,0,0,1-.254,1.636,1.317,1.317,0,0,1-.79.679,1.414,1.414,0,0,1-1.124-.046,1.353,1.353,0,0,1-.5-.37,1.247,1.247,0,0,1-.241-.492,3.149,3.149,0,0,1-.055-.763Q776.5,1450.538,776.521,1450.166Zm-3.674-6.249,4.029,1.866.545-6.506Z" transform="translate(-753.81 -1422.821)" fill="#fff" stroke="#fff" stroke-miterlimit="10" stroke-width="0.4"/>
        <path id="Контур_34860" data-name="Контур 34860" d="M807.233,1444.427l-.282,10.813,6.1.159a1.611,1.611,0,0,1,1.111.384,1.154,1.154,0,0,1,.367.9,1.121,1.121,0,0,1-.408.876,1.653,1.653,0,0,1-1.134.311l-7.266-.19a1.576,1.576,0,0,1-1.8-1.893l.3-11.442a1.99,1.99,0,0,1,.446-1.357,1.384,1.384,0,0,1,1.091-.428,1.434,1.434,0,0,1,1.087.48A1.948,1.948,0,0,1,807.233,1444.427Z" transform="translate(-766.927 -1425.063)" fill="#fff" stroke="#fff" stroke-miterlimit="10" stroke-width="0.4"/>
        <path id="Контур_34861" data-name="Контур 34861" d="M833.633,1439.734l1.955,4.83,3.166-7.931a5.449,5.449,0,0,1,.425-.882,1.339,1.339,0,0,1,.658-.5,1.461,1.461,0,0,1,1.115-.042,1.233,1.233,0,0,1,.719.71,1.846,1.846,0,0,1-.139,1.467l-2.091,4.587,6.176,4.018a7.632,7.632,0,0,1,1.033.768,2.148,2.148,0,0,1,.551.768,1.142,1.142,0,0,1-.038.945,1.494,1.494,0,0,1-.845.736,1.789,1.789,0,0,1-1.05.135,2.314,2.314,0,0,1-.888-.411q-.421-.31-.755-.569l-5.353-3.739-1.4,3.114,1.152,2.848a1.95,1.95,0,0,1,.124,1.442,1.439,1.439,0,0,1-.845.83,1.471,1.471,0,0,1-.762.089,1.415,1.415,0,0,1-.713-.3,1.8,1.8,0,0,1-.407-.546q-.169-.337-.435-.994l-4.146-10.243a2.02,2.02,0,0,1-.142-1.418,1.372,1.372,0,0,1,.839-.832,1.434,1.434,0,0,1,1.189.005A1.958,1.958,0,0,1,833.633,1439.734Z" transform="translate(-776.305 -1422.45)" fill="#fff" stroke="#fff" stroke-miterlimit="10" stroke-width="0.4"/>
        <path id="Контур_34862" data-name="Контур 34862" d="M872.545,1423.951a4.369,4.369,0,0,1,1.272,2.176,4.614,4.614,0,0,1-.188,2.632,7.612,7.612,0,0,1-1.752,2.714,7.14,7.14,0,0,1-3.108,2.05,4.837,4.837,0,0,1-2.294.088,3.627,3.627,0,0,1-1.841-.883,1.317,1.317,0,0,1-.028-1.893,1.143,1.143,0,0,1,.777-.372,2.394,2.394,0,0,1,1.041.216,5.968,5.968,0,0,0,1.281.376,2.48,2.48,0,0,0,1.209-.128,3.435,3.435,0,0,0,1.309-.923,3.547,3.547,0,0,0,1.052-2,1.879,1.879,0,0,0-.548-1.68,1.644,1.644,0,0,0-1.18-.5,2.917,2.917,0,0,0-1.315.356q-.67.349-1.694,1.024a13.975,13.975,0,0,1-2.486,1.333,4.339,4.339,0,0,1-2.174.293,3.555,3.555,0,0,1-2-1.03,3.7,3.7,0,0,1-1.113-1.989,4.225,4.225,0,0,1,.278-2.412,7.936,7.936,0,0,1,1.69-2.509,7.344,7.344,0,0,1,1.88-1.477,5,5,0,0,1,1.8-.576,3.776,3.776,0,0,1,1.519.12,2.719,2.719,0,0,1,1.082.613,1.424,1.424,0,0,1,.437.943,1.214,1.214,0,0,1-.343.984,1.089,1.089,0,0,1-.73.389,3.506,3.506,0,0,1-1.015-.163,3.838,3.838,0,0,0-1.621-.2,2.844,2.844,0,0,0-1.6.993,3.163,3.163,0,0,0-.93,1.714,1.489,1.489,0,0,0,.4,1.368,1.247,1.247,0,0,0,.725.356,2.05,2.05,0,0,0,.866-.1,4.537,4.537,0,0,0,.86-.371q.4-.224,1.273-.775a22.691,22.691,0,0,1,2.041-1.2,6.942,6.942,0,0,1,1.82-.658,3.546,3.546,0,0,1,1.7.08A4.107,4.107,0,0,1,872.545,1423.951Z" transform="translate(-786.164 -1416.72)" fill="#fff" stroke="#fff" stroke-miterlimit="10" stroke-width="0.4"/>
      </g>
    </g>
    <circle id="Эллипс_668" data-name="Эллипс 668" cx="2.475" cy="2.475" r="2.475" transform="translate(729.333 1358.912)" fill="#fff"/>
    <circle id="Эллипс_669" data-name="Эллипс 669" cx="2.475" cy="2.475" r="2.475" transform="translate(828.451 1358.912)" fill="#fff"/>
    <g id="Сгруппировать_74701" data-name="Сгруппировать 74701" transform="translate(755.519 1330.073)">
      <path id="Контур_34863" data-name="Контур 34863" d="M808.631,1357.628a11.885,11.885,0,1,0,11.886,11.885A11.9,11.9,0,0,0,808.631,1357.628Zm0,22.472a10.587,10.587,0,1,1,10.588-10.587A10.6,10.6,0,0,1,808.631,1380.1Z" transform="translate(-781.246 -1355.372)" stroke="#000" stroke-width="1"/>
      <path id="Контур_34864" data-name="Контур 34864" d="M837.1,1361.848a.839.839,0,0,0-.64.1.821.821,0,0,0-.276,1.116,15.866,15.866,0,0,1,.14,15.6.817.817,0,0,0,.281,1.1l.017.01a.831.831,0,0,0,.425.116.846.846,0,0,0,.217-.029.811.811,0,0,0,.5-.391,17.473,17.473,0,0,0-.157-17.236A.81.81,0,0,0,837.1,1361.848Zm-.313,17.642Z" transform="translate(-795.057 -1356.845)" stroke="#000" stroke-width="1"/>
      <path id="Контур_34865" data-name="Контур 34865" d="M850.672,1354.6a.9.9,0,0,0-.566-.424.937.937,0,0,0-.717.111.923.923,0,0,0-.308,1.254,25.53,25.53,0,0,1,.228,25.092.923.923,0,0,0,.33,1.248h0a.934.934,0,0,0,.72.1.9.9,0,0,0,.557-.434,27.311,27.311,0,0,0-.245-26.944Z" transform="translate(-799.581 -1354.151)" stroke="#000" stroke-width="1"/>
      <path id="Контур_34866" data-name="Контур 34866" d="M843.9,1358.588a.823.823,0,0,0-.515-.385.849.849,0,0,0-.651.1.833.833,0,0,0-.278,1.132,20.562,20.562,0,0,1,.185,20.215.832.832,0,0,0,.3,1.128.86.86,0,0,0,.653.089.823.823,0,0,0,.507-.4,22.188,22.188,0,0,0-.2-21.885Z" transform="translate(-797.259 -1355.565)" stroke="#000" stroke-width="1"/>
      <path id="Контур_34867" data-name="Контур 34867" d="M791.563,1361.946a.839.839,0,0,0-.64-.1.812.812,0,0,0-.509.381,17.473,17.473,0,0,0-.157,17.236.812.812,0,0,0,.5.391.842.842,0,0,0,.217.029.832.832,0,0,0,.425-.116h0a.82.82,0,0,0,.3-1.108,15.861,15.861,0,0,1,.14-15.6A.821.821,0,0,0,791.563,1361.946Z" transform="translate(-778.196 -1356.845)" stroke="#000" stroke-width="1"/>
      <path id="Контур_34868" data-name="Контур 34868" d="M774.715,1368.292a25.513,25.513,0,0,1,3.41-12.749.922.922,0,0,0-.307-1.254.939.939,0,0,0-.718-.111.9.9,0,0,0-.566.424,27.31,27.31,0,0,0-.245,26.944.9.9,0,0,0,.557.434.934.934,0,0,0,.72-.1h0a.923.923,0,0,0,.33-1.248A25.541,25.541,0,0,1,774.715,1368.292Z" transform="translate(-772.857 -1354.151)" stroke="#000" stroke-width="1"/>
      <path id="Контур_34869" data-name="Контур 34869" d="M784.931,1358.3a.848.848,0,0,0-.651-.1.821.821,0,0,0-.515.385,22.183,22.183,0,0,0-.2,21.885.822.822,0,0,0,.507.4.856.856,0,0,0,.22.028.846.846,0,0,0,.433-.117.832.832,0,0,0,.3-1.128,20.562,20.562,0,0,1,.184-20.215A.832.832,0,0,0,784.931,1358.3Z" transform="translate(-775.639 -1355.565)" stroke="#000" stroke-width="1"/>
    </g>
    <circle id="Эллипс_670" data-name="Эллипс 670" cx="1.985" cy="1.985" r="1.985" transform="translate(780.919 1342.229)" fill="#141414"/>
  </g>
</svg>
