<svg xmlns="http://www.w3.org/2000/svg" width="105.237" height="104.151" viewBox="0 0 105.237 104.151">
  <g id="Сгруппировать_74712" data-name="Сгруппировать 74712" transform="translate(-734.027 -1302.927)">
    <circle id="Эллипс_672" data-name="Эллипс 672" cx="28.797" cy="28.797" r="28.797" transform="translate(757.97 1326.375)" fill="#ff1612"/>
    <g id="Сгруппировать_74710" data-name="Сгруппировать 74710" transform="translate(734.027 1302.927)">
      <g id="Сгруппировать_74707" data-name="Сгруппировать 74707">
        <g id="Сгруппировать_74706" data-name="Сгруппировать 74706">
          <path id="Контур_34870" data-name="Контур 34870" d="M737.556,1350.9l.974,2.827,9.3-3.2a1.819,1.819,0,0,1,1.316-.052,1.271,1.271,0,0,1,.706.792,1.285,1.285,0,0,1-.07,1.074,1.788,1.788,0,0,1-1.062.77l-9.3,3.2.975,2.829a1.517,1.517,0,0,1,.047,1.088,1.054,1.054,0,0,1-.662.589,1.039,1.039,0,0,1-.9-.065,1.552,1.552,0,0,1-.624-.875l-2.838-8.241a1.537,1.537,0,0,1-.049-1.1,1.058,1.058,0,0,1,.666-.594,1.028,1.028,0,0,1,.886.066A1.559,1.559,0,0,1,737.556,1350.9Z" transform="translate(-733.585 -1286.458)" fill="#fff"/>
          <path id="Контур_34871" data-name="Контур 34871" d="M735.784,1343.434l3.869.264.4-5.9-3.869-.265a1.815,1.815,0,0,1-1.22-.458,1.26,1.26,0,0,1-.346-1.009,1.3,1.3,0,0,1,.477-.971,1.779,1.779,0,0,1,1.274-.3l10.641.724a1.784,1.784,0,0,1,1.228.473,1.3,1.3,0,0,1,.346,1.023,1.245,1.245,0,0,1-.486.958,1.84,1.84,0,0,1-1.273.284l-4.543-.309-.4,5.906,4.542.308a1.786,1.786,0,0,1,1.227.473,1.305,1.305,0,0,1,.347,1.024,1.261,1.261,0,0,1-.486.958,1.855,1.855,0,0,1-1.274.282l-10.642-.724a1.853,1.853,0,0,1-1.219-.448,1.265,1.265,0,0,1-.347-1.02,1.306,1.306,0,0,1,.48-.971A1.777,1.777,0,0,1,735.784,1343.434Z" transform="translate(-734.027 -1291.75)" fill="#fff"/>
          <path id="Контур_34872" data-name="Контур 34872" d="M742.929,1322.2l-2.857,5.478,2.946,1.537,2.633-5.043a1.355,1.355,0,0,1,.682-.7.96.96,0,0,1,.8.07,1,1,0,0,1,.526.617,1.323,1.323,0,0,1-.177.97l-2.631,5.043,3.412,1.783,2.958-5.667a1.4,1.4,0,0,1,.716-.724,1.032,1.032,0,0,1,.86.08,1.007,1.007,0,0,1,.539.651,1.4,1.4,0,0,1-.185,1l-3.447,6.606a1.435,1.435,0,0,1-2.267.712l-9.022-4.708a2.282,2.282,0,0,1-.774-.6,1.082,1.082,0,0,1-.228-.739,2.294,2.294,0,0,1,.29-.927l3.349-6.418a1.41,1.41,0,0,1,.709-.729,1.079,1.079,0,0,1,1.358.709A1.407,1.407,0,0,1,742.929,1322.2Z" transform="translate(-732.839 -1296.786)" fill="#fff"/>
          <path id="Контур_34873" data-name="Контур 34873" d="M759.846,1314.949l-2.2,1.2,1.833,3.366a1.78,1.78,0,0,1,.257,1.279,1.367,1.367,0,0,1-1.732.951,1.785,1.785,0,0,1-.924-.9l-4.994-9.161a1.7,1.7,0,0,1-.254-1.335,1.891,1.891,0,0,1,.974-.971l3.089-1.684a9.281,9.281,0,0,1,2.223-.939,3.585,3.585,0,0,1,1.628-.014,3.455,3.455,0,0,1,1.433.711,4.594,4.594,0,0,1,1.11,1.382,3.858,3.858,0,0,1,.382,3.364A5.794,5.794,0,0,1,759.846,1314.949Zm-3.554-5.13-1.621.884,1.98,3.634,1.621-.885a5.418,5.418,0,0,0,1.325-.955,1.879,1.879,0,0,0,.554-1.058,1.978,1.978,0,0,0-.28-1.225,2.049,2.049,0,0,0-1.16-1.031A3.515,3.515,0,0,0,756.292,1309.818Z" transform="translate(-727.801 -1301.62)" fill="#fff"/>
          <path id="Контур_34874" data-name="Контур 34874" d="M769.81,1310.944l-.955.092.412,4.329a1.811,1.811,0,0,1-.258,1.3,1.293,1.293,0,0,1-.944.5,1.258,1.258,0,0,1-1.051-.326,1.879,1.879,0,0,1-.478-1.208l-.986-10.369a1.438,1.438,0,0,1,1.513-1.832l4.44-.424a13.561,13.561,0,0,1,1.579-.07,3.941,3.941,0,0,1,1.206.2,3.421,3.421,0,0,1,1.2.657,3.349,3.349,0,0,1,.85,1.083,3.859,3.859,0,0,1,.385,1.368,3.367,3.367,0,0,1-.621,2.488,4.879,4.879,0,0,1-2.456,1.524,5.042,5.042,0,0,1,1.5,1.008,11.553,11.553,0,0,1,1.336,1.493,12.14,12.14,0,0,1,.955,1.458,3.033,3.033,0,0,1,.378.916.953.953,0,0,1-.12.543,1.19,1.19,0,0,1-.424.459,1.478,1.478,0,0,1-.666.216,1.33,1.33,0,0,1-.792-.142,2.065,2.065,0,0,1-.59-.5c-.172-.207-.407-.51-.7-.916l-1.268-1.716a9.918,9.918,0,0,0-1.2-1.425,2.6,2.6,0,0,0-1.01-.628A3.251,3.251,0,0,0,769.81,1310.944Zm1.024-5.813-2.518.241.351,3.705,2.446-.234a6.837,6.837,0,0,0,1.639-.327,1.962,1.962,0,0,0,.97-.677,1.673,1.673,0,0,0,.246-1.16,1.75,1.75,0,0,0-.378-.96,1.731,1.731,0,0,0-.852-.563A5.749,5.749,0,0,0,770.834,1305.131Z" transform="translate(-722.974 -1302.927)" fill="#fff"/>
          <path id="Контур_34875" data-name="Контур 34875" d="M788.106,1304.929a7.233,7.233,0,0,1,3.138,1.991,5.532,5.532,0,0,1,1.364,3.042,8.267,8.267,0,0,1-.476,3.749,9.066,9.066,0,0,1-1.335,2.558,6.224,6.224,0,0,1-1.933,1.686,5.554,5.554,0,0,1-2.444.678,8.23,8.23,0,0,1-5.361-1.871,5.647,5.647,0,0,1-1.509-2.051,6.17,6.17,0,0,1-.465-2.535,9.005,9.005,0,0,1,.52-2.821,8.755,8.755,0,0,1,1.36-2.559,6.135,6.135,0,0,1,1.952-1.67,5.622,5.622,0,0,1,2.411-.646A7.464,7.464,0,0,1,788.106,1304.929Zm1.406,7.855a6.372,6.372,0,0,0,.389-2.591,3.593,3.593,0,0,0-.758-2.007,3.754,3.754,0,0,0-1.749-1.2,3.694,3.694,0,0,0-1.537-.205,3.342,3.342,0,0,0-1.428.458,4.326,4.326,0,0,0-1.245,1.167,6.8,6.8,0,0,0-.95,1.856,6.957,6.957,0,0,0-.408,2.067,4.291,4.291,0,0,0,.27,1.73,3.455,3.455,0,0,0,.852,1.267,3.844,3.844,0,0,0,3.327.916,3.615,3.615,0,0,0,1.857-1.077A6.269,6.269,0,0,0,789.512,1312.784Z" transform="translate(-718.219 -1302.384)" fill="#fff"/>
          <path id="Контур_34876" data-name="Контур 34876" d="M803.812,1316.117l-4.731,5.285a13.285,13.285,0,0,1-1.1,1.116,4.91,4.91,0,0,1-1.14.74,3.539,3.539,0,0,1-2.3.281,5.04,5.04,0,0,1-2.344-1.262,5.346,5.346,0,0,1-1.418-1.853,3.357,3.357,0,0,1-.169-2.035,5.135,5.135,0,0,1,.436-1.208,4.878,4.878,0,0,1,.719-1.079,1.214,1.214,0,0,1,1.844-.135,1.038,1.038,0,0,1,.4.784,2.223,2.223,0,0,1-.336,1.013,8.67,8.67,0,0,0-.523,1.055,1.691,1.691,0,0,0-.1.894,1.611,1.611,0,0,0,.582.928q1.356,1.216,3.134-.774l5-5.579a1.85,1.85,0,0,1,1.1-.686,1.255,1.255,0,0,1,1.016.353,1.291,1.291,0,0,1,.475.985A1.807,1.807,0,0,1,803.812,1316.117Z" transform="translate(-714.205 -1299.185)" fill="#fff"/>
          <path id="Контур_34877" data-name="Контур 34877" d="M811.147,1329.608l-2.808-5.5-2.961,1.513,2.586,5.067a1.344,1.344,0,0,1,.174.962.955.955,0,0,1-.52.613.991.991,0,0,1-.809.07,1.322,1.322,0,0,1-.688-.707l-2.585-5.066-3.43,1.75,2.906,5.692a1.4,1.4,0,0,1,.174,1,1.026,1.026,0,0,1-.563.655,1.007,1.007,0,0,1-.844.062,1.4,1.4,0,0,1-.709-.731l-3.388-6.638a1.76,1.76,0,0,1-.232-1.326,1.783,1.783,0,0,1,.966-.935l9.064-4.625a2.3,2.3,0,0,1,.939-.282,1.094,1.094,0,0,1,.735.242,2.314,2.314,0,0,1,.588.774l3.291,6.449a1.409,1.409,0,0,1,.184,1,1.082,1.082,0,0,1-1.364.7A1.4,1.4,0,0,1,811.147,1329.608Z" transform="translate(-711.795 -1296.522)" fill="#fff"/>
          <path id="Контур_34878" data-name="Контур 34878" d="M806.439,1347.149a3.6,3.6,0,0,1-1.417-.228,5.031,5.031,0,0,1-1.539-.9,5.1,5.1,0,0,1-1.286-1.667,6.269,6.269,0,0,1-.611-2.44,8.673,8.673,0,0,1,.077-1.959,5.543,5.543,0,0,1,.53-1.631,5.383,5.383,0,0,1,1.046-1.385,6.659,6.659,0,0,1,1.364-1,7.441,7.441,0,0,1,1.645-.675,9.187,9.187,0,0,1,1.887-.311,8.443,8.443,0,0,1,2.952.286,6.228,6.228,0,0,1,2.294,1.219,5.939,5.939,0,0,1,1.529,1.983,6.724,6.724,0,0,1,.643,2.5,6.359,6.359,0,0,1-.467,2.962,5.285,5.285,0,0,1-1.491,2.067,3.19,3.19,0,0,1-1.776.8,1.181,1.181,0,0,1-.851-.278,1.058,1.058,0,0,1-.411-.778,1.115,1.115,0,0,1,.2-.8,3.431,3.431,0,0,1,.819-.64,4.122,4.122,0,0,0,1.422-1.353,3.075,3.075,0,0,0,.382-1.816,3.233,3.233,0,0,0-1.453-2.6,5.806,5.806,0,0,0-3.7-.766,6.771,6.771,0,0,0-2.594.611,3.32,3.32,0,0,0-1.482,1.354,3.47,3.47,0,0,0-.393,1.932,3.332,3.332,0,0,0,.713,1.957,3.545,3.545,0,0,0,1.8,1.12,2.9,2.9,0,0,1,.9.377.98.98,0,0,1,.389.808,1.161,1.161,0,0,1-.286.861A1.135,1.135,0,0,1,806.439,1347.149Z" transform="translate(-710.332 -1291.701)" fill="#fff"/>
          <path id="Контур_34879" data-name="Контур 34879" d="M809.537,1359.159l.977-2.827-9.3-3.211a1.813,1.813,0,0,1-1.068-.769,1.274,1.274,0,0,1-.069-1.061,1.289,1.289,0,0,1,.717-.8,1.784,1.784,0,0,1,1.312.047l9.3,3.21.977-2.829a1.509,1.509,0,0,1,.633-.885,1.046,1.046,0,0,1,.884-.055,1.034,1.034,0,0,1,.669.607,1.542,1.542,0,0,1-.047,1.073l-2.846,8.24a1.531,1.531,0,0,1-.64.9,1.057,1.057,0,0,1-.89.059,1.037,1.037,0,0,1-.659-.6A1.55,1.55,0,0,1,809.537,1359.159Z" transform="translate(-710.882 -1286.445)" fill="#fff"/>
        </g>
      </g>
      <g id="Сгруппировать_74709" data-name="Сгруппировать 74709" transform="translate(20.86 81.593)">
        <g id="Сгруппировать_74708" data-name="Сгруппировать 74708">
          <path id="Контур_34880" data-name="Контур 34880" d="M760.23,1365.706a7.233,7.233,0,0,1,2.553,2.7,5.529,5.529,0,0,1,.575,3.284,8.254,8.254,0,0,1-1.383,3.516,9.041,9.041,0,0,1-1.921,2.152,6.164,6.164,0,0,1-2.288,1.159,5.561,5.561,0,0,1-2.534.058,7.553,7.553,0,0,1-2.644-1.14,7.476,7.476,0,0,1-2.1-1.99,5.651,5.651,0,0,1-.959-2.36,6.218,6.218,0,0,1,.172-2.572,9.136,9.136,0,0,1,1.2-2.606,8.789,8.789,0,0,1,1.947-2.145,6.166,6.166,0,0,1,2.3-1.14,5.631,5.631,0,0,1,2.5-.034A7.454,7.454,0,0,1,760.23,1365.706Zm-.567,7.959a6.3,6.3,0,0,0,1.013-2.417,3.583,3.583,0,0,0-.239-2.132,3.777,3.777,0,0,0-1.4-1.59,3.714,3.714,0,0,0-1.44-.575,3.331,3.331,0,0,0-1.5.093,4.307,4.307,0,0,0-1.493.825,6.838,6.838,0,0,0-1.377,1.564,7.008,7.008,0,0,0-.9,1.906,4.282,4.282,0,0,0-.164,1.744,3.436,3.436,0,0,0,.515,1.436,3.847,3.847,0,0,0,3,1.707,3.641,3.641,0,0,0,2.067-.589A6.285,6.285,0,0,0,759.662,1373.665Z" transform="translate(-749.469 -1362.93)" fill="#fff"/>
          <path id="Контур_34881" data-name="Контур 34881" d="M768.7,1378.141l-2.472-.446-.68,3.771a1.8,1.8,0,0,1-.6,1.159,1.265,1.265,0,0,1-1.037.243,1.279,1.279,0,0,1-.908-.59,1.785,1.785,0,0,1-.154-1.279l1.852-10.271a1.7,1.7,0,0,1,.638-1.2,1.893,1.893,0,0,1,1.368-.147l3.462.624a9.219,9.219,0,0,1,2.319.662,3.564,3.564,0,0,1,1.278,1.009,3.467,3.467,0,0,1,.673,1.452,4.637,4.637,0,0,1,0,1.775,3.853,3.853,0,0,1-1.81,2.858A5.8,5.8,0,0,1,768.7,1378.141Zm.446-6.225-1.817-.328-.735,4.072,1.818.328a5.5,5.5,0,0,0,1.632.086,1.878,1.878,0,0,0,1.093-.477,1.991,1.991,0,0,0,.552-1.131,2.055,2.055,0,0,0-.259-1.529A3.509,3.509,0,0,0,769.148,1371.916Z" transform="translate(-744.792 -1361.224)" fill="#fff"/>
          <path id="Контур_34882" data-name="Контур 34882" d="M784.17,1371.21l-6.064,1.18.636,3.264,5.582-1.089a1.355,1.355,0,0,1,.975.1.959.959,0,0,1,.446.67,1,1,0,0,1-.156.8,1.326,1.326,0,0,1-.87.465l-5.582,1.089.736,3.78,6.272-1.223a1.394,1.394,0,0,1,1.013.108,1.031,1.031,0,0,1,.475.721,1.011,1.011,0,0,1-.173.828,1.406,1.406,0,0,1-.9.482l-7.315,1.424a1.435,1.435,0,0,1-1.971-1.328l-1.947-9.988a2.292,2.292,0,0,1-.013-.981,1.093,1.093,0,0,1,.436-.64,2.309,2.309,0,0,1,.905-.35l7.105-1.385a1.411,1.411,0,0,1,1.012.1.985.985,0,0,1,.459.688,1,1,0,0,1-.166.817A1.412,1.412,0,0,1,784.17,1371.21Z" transform="translate(-740.417 -1361.308)" fill="#fff"/>
          <path id="Контур_34883" data-name="Контур 34883" d="M789.031,1368.543l8.813,3.712-4.467-6.7a1.766,1.766,0,0,1-.373-1.167,1.139,1.139,0,0,1,.539-.831,1.177,1.177,0,0,1,.993-.19,1.757,1.757,0,0,1,.939.79l5.907,8.859q.987,1.481-.242,2.3a1.977,1.977,0,0,1-.612.281,1.669,1.669,0,0,1-.648.026,3.248,3.248,0,0,1-.7-.182c-.238-.091-.478-.182-.719-.28l-8.656-3.708,4.4,6.6a1.69,1.69,0,0,1,.351,1.175,1.189,1.189,0,0,1-.547.843,1.176,1.176,0,0,1-1,.184,1.73,1.73,0,0,1-.94-.777l-5.794-8.69a2.958,2.958,0,0,1-.457-.95,1.485,1.485,0,0,1,.108-.888,1.574,1.574,0,0,1,.584-.705,1.481,1.481,0,0,1,.593-.251,1.519,1.519,0,0,1,.563.012,3.435,3.435,0,0,1,.63.212Z" transform="translate(-736.725 -1363.328)" fill="#fff"/>
        </g>
      </g>
    </g>
  </g>
</svg>
